# xmcd
#
# Track frame offsets: 
#        150
#        21025
#        46150
#        70175
#        99875
#        122175
#        140062
#        151595
#        173640
#        188365
#        213920
#        231662
#
# Disc length: 3371 seconds
#
# Revision: 3
# Processed by: cddbd v1.5.2PL0 Copyright (c) Steve Scherf et al.
# Submitted via: ExactAudioCopy v1.0b3
#
DISCID=960d290c
DTITLE=Maurice John Vaughn - In the Shadow of the City
DYEAR=1993
DGENRE=Blues
TTITLE0=Can't Nobody
TTITLE1=I Want To Be Your Spy
TTITLE2=(Everything I Do) Got To Be Funky
TTITLE3=Blood Red Sky
TTITLE4=Game Over
TTITLE5=Love Bone
TTITLE6=Treat Me So Bad
TTITLE7=Watching Your Watch
TTITLE8=Eager Beaver
TTITLE9=Are You Satisfied?
TTITLE10=Suicide Is Not the Way
TTITLE11=Small Town Baby
EXTD=LABEL =Alligator Records and Artist Mgmt., Inc.\nID =ALCD4813\nUP
EXTD=C =014551-4813-24\nCOPYRIGHT =1993
EXTT0=
EXTT1=
EXTT2=
EXTT3=
EXTT4=
EXTT5=
EXTT6=
EXTT7=
EXTT8=
EXTT9=
EXTT10=
EXTT11=
PLAYORDER=
